<svg width="274" height="240" viewBox="0 0 274 240" fill="none" xmlns="http://www.w3.org/2000/svg">
<g filter="url(#filter0_f_144_1095)">
<ellipse cx="136.217" cy="127.683" rx="32.4994" ry="9.61788" fill="url(#paint0_linear_144_1095)" fill-opacity="0.4"/>
<path d="M167.366 127.683C167.366 128.348 166.904 129.26 165.388 130.321C163.911 131.354 161.686 132.34 158.814 133.189C153.089 134.884 145.099 135.951 136.217 135.951C127.334 135.951 119.345 134.884 113.619 133.189C110.748 132.34 108.522 131.354 107.045 130.321C105.53 129.26 105.067 128.348 105.067 127.683C105.067 127.018 105.53 126.105 107.045 125.045C108.522 124.011 110.748 123.026 113.619 122.176C119.345 120.482 127.334 119.415 136.217 119.415C145.099 119.415 153.089 120.482 158.814 122.176C161.686 123.026 163.911 124.011 165.388 125.045C166.904 126.105 167.366 127.018 167.366 127.683Z" stroke="url(#paint1_linear_144_1095)" stroke-width="2.69931"/>
</g>
<g filter="url(#filter1_f_144_1095)">
<path d="M168.716 127.683C168.716 132.995 154.165 137.301 136.216 137.301" stroke="url(#paint2_linear_144_1095)" stroke-width="6.74827"/>
</g>
<ellipse cx="136.217" cy="135.484" rx="29.9409" ry="11.1392" fill="url(#paint3_linear_144_1095)"/>
<path fill-rule="evenodd" clip-rule="evenodd" d="M136.217 146.894C153.154 146.894 166.885 141.785 166.885 135.484C166.885 129.183 153.154 124.074 136.217 124.074C119.279 124.074 105.549 129.183 105.549 135.484C105.549 141.785 119.279 146.894 136.217 146.894ZM136.217 146.623C152.753 146.623 166.158 141.636 166.158 135.484C166.158 129.332 152.753 124.345 136.217 124.345C119.681 124.345 106.276 129.332 106.276 135.484C106.276 141.636 119.681 146.623 136.217 146.623Z" fill="url(#paint4_linear_144_1095)"/>
<g filter="url(#filter2_f_144_1095)">
<path d="M136.36 159L81 81L193 81L136.36 159Z" fill="url(#paint5_linear_144_1095)" fill-opacity="0.6"/>
</g>
<g filter="url(#filter3_df_144_1095)">
<path fill-rule="evenodd" clip-rule="evenodd" d="M136.217 146.894C153.154 146.894 166.885 141.785 166.885 135.484C166.885 129.183 153.154 124.074 136.217 124.074C119.279 124.074 105.549 129.183 105.549 135.484C105.549 141.785 119.279 146.894 136.217 146.894ZM136.217 146.673C152.753 146.673 166.158 141.664 166.158 135.484C166.158 129.305 152.753 124.295 136.217 124.295C119.681 124.295 106.276 129.305 106.276 135.484C106.276 141.664 119.681 146.673 136.217 146.673Z" fill="url(#paint6_linear_144_1095)" shape-rendering="crispEdges"/>
</g>
<g filter="url(#filter4_f_144_1095)">
<path fill-rule="evenodd" clip-rule="evenodd" d="M136.216 141.064C148.521 141.064 158.496 137.907 158.496 134.014C158.496 130.121 148.521 126.964 136.216 126.964C123.912 126.964 113.937 130.121 113.937 134.014C113.937 137.907 123.912 141.064 136.216 141.064ZM136.216 140.538C147.604 140.538 156.836 137.617 156.836 134.014C156.836 130.411 147.604 127.49 136.216 127.49C124.828 127.49 115.597 130.411 115.597 134.014C115.597 137.617 124.828 140.538 136.216 140.538Z" fill="url(#paint7_linear_144_1095)"/>
</g>
<g filter="url(#filter5_d_144_1095)">
<path fill-rule="evenodd" clip-rule="evenodd" d="M136.216 141.064C148.521 141.064 158.496 137.907 158.496 134.014C158.496 130.121 148.521 126.964 136.216 126.964C123.912 126.964 113.937 130.121 113.937 134.014C113.937 137.907 123.912 141.064 136.216 141.064ZM136.216 140.538C147.604 140.538 156.836 137.617 156.836 134.014C156.836 130.411 147.604 127.49 136.216 127.49C124.828 127.49 115.597 130.411 115.597 134.014C115.597 137.617 124.828 140.538 136.216 140.538Z" fill="url(#paint8_linear_144_1095)" shape-rendering="crispEdges"/>
</g>
<path fill-rule="evenodd" clip-rule="evenodd" d="M166.974 135.553C166.975 135.53 166.975 135.507 166.975 135.484C166.986 135.455 166.998 135.426 167.009 135.396L168.478 128.849C166.533 133.611 152.83 137.301 136.215 137.301C119.38 137.301 105.535 133.513 103.881 128.66L105.494 135.678L105.495 135.679C107.054 142.457 119.274 146.894 136.211 146.894C151.242 146.894 163.822 142.871 166.464 137.562L166.724 136.67L166.974 135.553Z" fill="url(#paint9_linear_144_1095)" fill-opacity="0.5"/>
<g filter="url(#filter6_f_144_1095)">
<path fill-rule="evenodd" clip-rule="evenodd" d="M148.221 133.046C148.221 135.144 142.846 136.844 136.217 136.844C129.587 136.844 124.213 135.144 124.213 133.046C124.213 130.948 129.587 129.248 136.217 129.248C141.986 129.248 146.805 130.535 147.958 132.252H147.007C145.817 130.801 141.437 129.724 136.217 129.724C130.081 129.724 125.107 131.212 125.107 133.046C125.107 134.88 130.081 136.367 136.217 136.367C142.352 136.367 147.326 134.88 147.326 133.046C147.326 133.046 147.326 133.046 147.326 133.046L148.221 133.046Z" fill="url(#paint10_linear_144_1095)"/>
</g>
<g filter="url(#filter7_f_144_1095)">
<path d="M145.9 133.046C145.9 134.59 141.564 135.842 136.217 135.842C130.869 135.842 126.534 134.59 126.534 133.046C126.534 131.502 130.869 130.25 136.217 130.25C141.564 130.25 145.9 131.502 145.9 133.046Z" fill="#4DFFFF"/>
</g>
<g filter="url(#filter8_f_144_1095)">
<path d="M136.208 148.938L105.89 95.3493L166.371 95.3493L136.208 148.938Z" fill="url(#paint11_linear_144_1095)"/>
</g>
<g filter="url(#filter9_f_144_1095)">
<path fill-rule="evenodd" clip-rule="evenodd" d="M165.513 137.013L165.662 133.853C165.045 134.26 164.36 134.652 163.613 135.03C163.547 136.024 163.468 137.207 163.397 138.409C164.185 137.961 164.892 137.494 165.513 137.013ZM160.945 139.631L161.11 136.146C160.111 136.54 159.036 136.912 157.894 137.259C157.817 138.452 157.739 139.72 157.684 140.884C158.85 140.493 159.94 140.074 160.945 139.631ZM154.863 141.738L155.036 138.04C153.651 138.379 152.19 138.685 150.662 138.954C150.579 140.233 150.496 141.575 150.443 142.768C151.991 142.462 153.468 142.118 154.863 141.738Z" fill="#B6E9FF" fill-opacity="0.4"/>
</g>
<g filter="url(#filter10_f_144_1095)">
<path d="M138.351 132.975C138.351 133.46 137.396 133.853 136.217 133.853C135.039 133.853 134.083 133.46 134.083 132.975C134.083 132.49 135.039 132.097 136.217 132.097C137.396 132.097 138.351 132.49 138.351 132.975Z" fill="#FFFA76"/>
</g>
<g filter="url(#filter11_f_144_1095)">
<path d="M134.751 140.452C125.808 140.311 117.393 138.366 114.033 137.294L113.693 140.112C115.498 141.087 117.565 141.815 120.569 142.42L120.681 141.606C121.442 141.799 123.719 142.07 124.762 142.182L124.849 140.959C128.356 141.594 132.467 141.69 134.619 141.741L134.648 141.741C134.647 141.645 134.719 141.154 134.751 140.452Z" fill="#B6E9FF" fill-opacity="0.4"/>
</g>
<g filter="url(#filter12_d_144_1095)">
<path fill-rule="evenodd" clip-rule="evenodd" d="M138.717 99.339C139.84 98.5569 140.602 97.0313 140.602 95.2774C140.602 92.7264 138.989 90.6584 137 90.6584C135.01 90.6584 133.398 92.7264 133.398 95.2774C133.398 97.0313 134.16 98.5569 135.283 99.3391C133.399 99.8417 131.845 101.152 131.014 102.876C126.958 102.313 124.195 101.197 124.195 99.911C124.195 98.4275 127.874 97.1691 132.973 96.7272C132.929 96.5266 132.894 96.3213 132.869 96.112C125.485 96.5852 120.015 98.2985 120.015 100.34C120.015 102.156 124.347 103.713 130.504 104.367C130.409 104.815 130.358 105.28 130.358 105.756V112.246H133.071L133.199 115.053C127.983 114.629 124.195 113.356 124.195 111.85C124.195 110.72 126.331 109.72 129.604 109.113V108.355C123.929 109.061 120.015 110.553 120.015 112.279C120.015 114.356 125.682 116.094 133.266 116.531L133.498 121.642C133.563 123.083 134.751 124.218 136.194 124.218H137.805C139.249 124.218 140.437 123.083 140.502 121.642L140.734 116.531C148.317 116.094 153.983 114.356 153.983 112.279C153.983 110.553 150.07 109.061 144.395 108.355V109.113C147.667 109.72 149.803 110.72 149.803 111.85C149.803 113.356 146.016 114.629 140.801 115.053L140.928 112.246H143.641V105.756C143.641 105.28 143.591 104.815 143.496 104.367C149.652 103.712 153.983 102.156 153.983 100.34C153.983 98.2984 148.512 96.5851 141.128 96.1119C141.102 96.3212 141.067 96.5265 141.023 96.7271C146.123 97.1689 149.803 98.4274 149.803 99.911C149.803 101.196 147.041 102.313 142.986 102.876C142.154 101.152 140.6 99.8417 138.717 99.339ZM132.706 120.001C125.405 120.489 120.015 122.192 120.015 124.218C120.015 126.625 127.619 128.576 136.999 128.576C146.379 128.576 153.983 126.625 153.983 124.218C153.983 122.192 148.593 120.489 141.291 120.001L141.263 120.627C146.238 121.087 149.803 122.329 149.803 123.789C149.803 125.641 144.071 127.142 136.999 127.142C129.928 127.142 124.195 125.641 124.195 123.789C124.195 122.329 127.76 121.087 132.734 120.627L132.706 120.001Z" fill="url(#paint12_linear_144_1095)" shape-rendering="crispEdges"/>
</g>
<defs>
<filter id="filter0_f_144_1095" x="101.018" y="115.366" width="70.3974" height="24.6344" filterUnits="userSpaceOnUse" color-interpolation-filters="sRGB">
<feFlood flood-opacity="0" result="BackgroundImageFix"/>
<feBlend mode="normal" in="SourceGraphic" in2="BackgroundImageFix" result="shape"/>
<feGaussianBlur stdDeviation="1.34965" result="effect1_foregroundBlur_144_1095"/>
</filter>
<filter id="filter1_f_144_1095" x="133.517" y="124.867" width="41.2722" height="18.5069" filterUnits="userSpaceOnUse" color-interpolation-filters="sRGB">
<feFlood flood-opacity="0" result="BackgroundImageFix"/>
<feBlend mode="normal" in="SourceGraphic" in2="BackgroundImageFix" result="shape"/>
<feGaussianBlur stdDeviation="1.34965" result="effect1_foregroundBlur_144_1095"/>
</filter>
<filter id="filter2_f_144_1095" x="0.0207291" y="0.0207291" width="273.959" height="239.959" filterUnits="userSpaceOnUse" color-interpolation-filters="sRGB">
<feFlood flood-opacity="0" result="BackgroundImageFix"/>
<feBlend mode="normal" in="SourceGraphic" in2="BackgroundImageFix" result="shape"/>
<feGaussianBlur stdDeviation="40.4896" result="effect1_foregroundBlur_144_1095"/>
</filter>
<filter id="filter3_df_144_1095" x="94.7517" y="113.277" width="82.93" height="44.4137" filterUnits="userSpaceOnUse" color-interpolation-filters="sRGB">
<feFlood flood-opacity="0" result="BackgroundImageFix"/>
<feColorMatrix in="SourceAlpha" type="matrix" values="0 0 0 0 0 0 0 0 0 0 0 0 0 0 0 0 0 0 127 0" result="hardAlpha"/>
<feOffset/>
<feGaussianBlur stdDeviation="5.39862"/>
<feComposite in2="hardAlpha" operator="out"/>
<feColorMatrix type="matrix" values="0 0 0 0 0.3625 0 0 0 0 0.847 0 0 0 0 1 0 0 0 0.25 0"/>
<feBlend mode="normal" in2="BackgroundImageFix" result="effect1_dropShadow_144_1095"/>
<feBlend mode="normal" in="SourceGraphic" in2="effect1_dropShadow_144_1095" result="shape"/>
<feGaussianBlur stdDeviation="2.69931" result="effect2_foregroundBlur_144_1095"/>
</filter>
<filter id="filter4_f_144_1095" x="103.139" y="116.167" width="66.1541" height="35.694" filterUnits="userSpaceOnUse" color-interpolation-filters="sRGB">
<feFlood flood-opacity="0" result="BackgroundImageFix"/>
<feBlend mode="normal" in="SourceGraphic" in2="BackgroundImageFix" result="shape"/>
<feGaussianBlur stdDeviation="5.39862" result="effect1_foregroundBlur_144_1095"/>
</filter>
<filter id="filter5_d_144_1095" x="89.6428" y="102.67" width="93.1472" height="62.6871" filterUnits="userSpaceOnUse" color-interpolation-filters="sRGB">
<feFlood flood-opacity="0" result="BackgroundImageFix"/>
<feColorMatrix in="SourceAlpha" type="matrix" values="0 0 0 0 0 0 0 0 0 0 0 0 0 0 0 0 0 0 127 0" result="hardAlpha"/>
<feOffset/>
<feGaussianBlur stdDeviation="12.1469"/>
<feComposite in2="hardAlpha" operator="out"/>
<feColorMatrix type="matrix" values="0 0 0 0 0.141667 0 0 0 0 0.691 0 0 0 0 1 0 0 0 1 0"/>
<feBlend mode="normal" in2="BackgroundImageFix" result="effect1_dropShadow_144_1095"/>
<feBlend mode="normal" in="SourceGraphic" in2="effect1_dropShadow_144_1095" result="shape"/>
</filter>
<filter id="filter6_f_144_1095" x="121.514" y="126.548" width="29.4064" height="12.9952" filterUnits="userSpaceOnUse" color-interpolation-filters="sRGB">
<feFlood flood-opacity="0" result="BackgroundImageFix"/>
<feBlend mode="normal" in="SourceGraphic" in2="BackgroundImageFix" result="shape"/>
<feGaussianBlur stdDeviation="1.34965" result="effect1_foregroundBlur_144_1095"/>
</filter>
<filter id="filter7_f_144_1095" x="118.436" y="122.152" width="35.5613" height="21.7876" filterUnits="userSpaceOnUse" color-interpolation-filters="sRGB">
<feFlood flood-opacity="0" result="BackgroundImageFix"/>
<feBlend mode="normal" in="SourceGraphic" in2="BackgroundImageFix" result="shape"/>
<feGaussianBlur stdDeviation="4.04896" result="effect1_foregroundBlur_144_1095"/>
</filter>
<filter id="filter8_f_144_1095" x="89.6938" y="79.1535" width="92.8733" height="85.9806" filterUnits="userSpaceOnUse" color-interpolation-filters="sRGB">
<feFlood flood-opacity="0" result="BackgroundImageFix"/>
<feBlend mode="normal" in="SourceGraphic" in2="BackgroundImageFix" result="shape"/>
<feGaussianBlur stdDeviation="8.09793" result="effect1_foregroundBlur_144_1095"/>
</filter>
<filter id="filter9_f_144_1095" x="145.044" y="128.455" width="26.0166" height="19.7117" filterUnits="userSpaceOnUse" color-interpolation-filters="sRGB">
<feFlood flood-opacity="0" result="BackgroundImageFix"/>
<feBlend mode="normal" in="SourceGraphic" in2="BackgroundImageFix" result="shape"/>
<feGaussianBlur stdDeviation="2.69931" result="effect1_foregroundBlur_144_1095"/>
</filter>
<filter id="filter10_f_144_1095" x="123.286" y="121.3" width="25.8621" height="23.3503" filterUnits="userSpaceOnUse" color-interpolation-filters="sRGB">
<feFlood flood-opacity="0" result="BackgroundImageFix"/>
<feBlend mode="normal" in="SourceGraphic" in2="BackgroundImageFix" result="shape"/>
<feGaussianBlur stdDeviation="5.39862" result="effect1_foregroundBlur_144_1095"/>
</filter>
<filter id="filter11_f_144_1095" x="108.294" y="131.896" width="31.8547" height="15.9229" filterUnits="userSpaceOnUse" color-interpolation-filters="sRGB">
<feFlood flood-opacity="0" result="BackgroundImageFix"/>
<feBlend mode="normal" in="SourceGraphic" in2="BackgroundImageFix" result="shape"/>
<feGaussianBlur stdDeviation="2.69931" result="effect1_foregroundBlur_144_1095"/>
</filter>
<filter id="filter12_d_144_1095" x="93.0219" y="63.6654" width="87.9539" height="91.9034" filterUnits="userSpaceOnUse" color-interpolation-filters="sRGB">
<feFlood flood-opacity="0" result="BackgroundImageFix"/>
<feColorMatrix in="SourceAlpha" type="matrix" values="0 0 0 0 0 0 0 0 0 0 0 0 0 0 0 0 0 0 127 0" result="hardAlpha"/>
<feOffset/>
<feGaussianBlur stdDeviation="13.4965"/>
<feComposite in2="hardAlpha" operator="out"/>
<feColorMatrix type="matrix" values="0 0 0 0 0.204167 0 0 0 0 0.95225 0 0 0 0 1 0 0 0 0.7 0"/>
<feBlend mode="normal" in2="BackgroundImageFix" result="effect1_dropShadow_144_1095"/>
<feBlend mode="normal" in="SourceGraphic" in2="effect1_dropShadow_144_1095" result="shape"/>
</filter>
<linearGradient id="paint0_linear_144_1095" x1="136.217" y1="118.065" x2="136.217" y2="137.301" gradientUnits="userSpaceOnUse">
<stop stop-color="#DEF9FF" stop-opacity="0.5"/>
<stop offset="1" stop-color="#E9FBFF" stop-opacity="0"/>
</linearGradient>
<linearGradient id="paint1_linear_144_1095" x1="136.217" y1="139.993" x2="136.217" y2="115.069" gradientUnits="userSpaceOnUse">
<stop stop-color="#E8FEFF"/>
<stop offset="1" stop-color="#E8FEFF" stop-opacity="0"/>
</linearGradient>
<linearGradient id="paint2_linear_144_1095" x1="137.539" y1="137.931" x2="167.573" y2="128.787" gradientUnits="userSpaceOnUse">
<stop stop-color="#E8FEFF" stop-opacity="0"/>
<stop offset="0.599389" stop-color="#E8FEFF"/>
<stop offset="1" stop-color="#E8FEFF" stop-opacity="0"/>
</linearGradient>
<linearGradient id="paint3_linear_144_1095" x1="136.217" y1="124.345" x2="136.217" y2="146.623" gradientUnits="userSpaceOnUse">
<stop stop-color="#DEF9FF" stop-opacity="0.5"/>
<stop offset="1" stop-color="#E9FBFF" stop-opacity="0"/>
</linearGradient>
<linearGradient id="paint4_linear_144_1095" x1="136.217" y1="124.074" x2="136.217" y2="146.894" gradientUnits="userSpaceOnUse">
<stop stop-color="#DEF9FF" stop-opacity="0.5"/>
<stop offset="1" stop-color="#E9FBFF" stop-opacity="0.9"/>
</linearGradient>
<linearGradient id="paint5_linear_144_1095" x1="136.36" y1="159" x2="136.36" y2="81" gradientUnits="userSpaceOnUse">
<stop offset="0.250952" stop-color="#5FF5FF" stop-opacity="0"/>
<stop offset="0.453702" stop-color="#5FE2FF"/>
<stop offset="1" stop-color="#5FD8FF" stop-opacity="0"/>
</linearGradient>
<linearGradient id="paint6_linear_144_1095" x1="136.217" y1="124.074" x2="136.217" y2="146.894" gradientUnits="userSpaceOnUse">
<stop stop-color="#DEF9FF" stop-opacity="0.5"/>
<stop offset="1" stop-color="#E9FBFF" stop-opacity="0.9"/>
</linearGradient>
<linearGradient id="paint7_linear_144_1095" x1="136.217" y1="126.964" x2="136.217" y2="141.064" gradientUnits="userSpaceOnUse">
<stop stop-color="#9FF9FF"/>
<stop offset="1" stop-color="#A9FFFA" stop-opacity="0.6"/>
</linearGradient>
<linearGradient id="paint8_linear_144_1095" x1="136.217" y1="126.964" x2="136.217" y2="141.064" gradientUnits="userSpaceOnUse">
<stop stop-color="#72F7FF"/>
<stop offset="1" stop-color="#A9FFFA" stop-opacity="0.6"/>
</linearGradient>
<linearGradient id="paint9_linear_144_1095" x1="98.2848" y1="137.777" x2="177.605" y2="137.777" gradientUnits="userSpaceOnUse">
<stop stop-color="#B4F1FF"/>
<stop offset="0.472727" stop-color="#D8FFFD" stop-opacity="0"/>
<stop offset="1" stop-color="#B4F1FF"/>
</linearGradient>
<linearGradient id="paint10_linear_144_1095" x1="136.217" y1="129.248" x2="136.217" y2="136.844" gradientUnits="userSpaceOnUse">
<stop stop-color="#72F7FF"/>
<stop offset="1" stop-color="#96FFF9" stop-opacity="0.6"/>
</linearGradient>
<linearGradient id="paint11_linear_144_1095" x1="136.207" y1="148.938" x2="136.207" y2="95.3493" gradientUnits="userSpaceOnUse">
<stop offset="0.250952" stop-color="#5FF5FF" stop-opacity="0"/>
<stop offset="0.453702" stop-color="#5FE2FF"/>
<stop offset="1" stop-color="#5FD8FF" stop-opacity="0"/>
</linearGradient>
<linearGradient id="paint12_linear_144_1095" x1="136.999" y1="109.617" x2="136.999" y2="139.166" gradientUnits="userSpaceOnUse">
<stop stop-color="white"/>
<stop offset="1" stop-color="white" stop-opacity="0"/>
</linearGradient>
</defs>
</svg>
