<svg width="30" height="30" viewBox="0 0 30 30" fill="none" xmlns="http://www.w3.org/2000/svg">
<path d="M28.5 18C28.1022 18 27.7206 18.158 27.4393 18.4393C27.158 18.7206 27 19.1022 27 19.5V25.5C27 25.8978 26.842 26.2794 26.5607 26.5607C26.2794 26.842 25.8978 27 25.5 27H4.5C4.10218 27 3.72064 26.842 3.43934 26.5607C3.15804 26.2794 3 25.8978 3 25.5V19.5C3 19.1022 2.84196 18.7206 2.56066 18.4393C2.27936 18.158 1.89782 18 1.5 18C1.10218 18 0.720644 18.158 0.43934 18.4393C0.158035 18.7206 0 19.1022 0 19.5V25.5C0 26.6935 0.474106 27.8381 1.31802 28.682C2.16193 29.5259 3.30653 30 4.5 30H25.5C26.6935 30 27.8381 29.5259 28.682 28.682C29.5259 27.8381 30 26.6935 30 25.5V19.5C30 19.1022 29.842 18.7206 29.5607 18.4393C29.2794 18.158 28.8978 18 28.5 18ZM13.935 20.565C14.0777 20.7016 14.2459 20.8086 14.43 20.88C14.6096 20.9594 14.8037 21.0003 15 21.0003C15.1963 21.0003 15.3904 20.9594 15.57 20.88C15.7541 20.8086 15.9223 20.7016 16.065 20.565L22.065 14.565C22.3475 14.2825 22.5061 13.8995 22.5061 13.5C22.5061 13.1005 22.3475 12.7175 22.065 12.435C21.7825 12.1525 21.3995 11.9939 21 11.9939C20.6005 11.9939 20.2175 12.1525 19.935 12.435L16.5 15.885V1.5C16.5 1.10218 16.342 0.720644 16.0607 0.43934C15.7794 0.158035 15.3978 0 15 0C14.6022 0 14.2206 0.158035 13.9393 0.43934C13.658 0.720644 13.5 1.10218 13.5 1.5V15.885L10.065 12.435C9.92514 12.2951 9.75911 12.1842 9.57637 12.1085C9.39364 12.0328 9.19779 11.9939 9 11.9939C8.80221 11.9939 8.60636 12.0328 8.42363 12.1085C8.24089 12.1842 8.07486 12.2951 7.935 12.435C7.79514 12.5749 7.6842 12.7409 7.60851 12.9236C7.53282 13.1064 7.49386 13.3022 7.49386 13.5C7.49386 13.6978 7.53282 13.8936 7.60851 14.0764C7.6842 14.2591 7.79514 14.4251 7.935 14.565L13.935 20.565Z" fill="black"/>
</svg>
