<svg width="36" height="28" viewBox="0 0 36 28" fill="none" xmlns="http://www.w3.org/2000/svg">
<path d="M3 2.75V22.75C3.02583 23.4533 3.27333 24.0392 3.7425 24.5075C4.21167 24.9758 4.7975 25.2233 5.5 25.25H30.5C31.2033 25.2242 31.7892 24.9767 32.2575 24.5075C32.7258 24.0383 32.9733 23.4525 33 22.75V2.75H3ZM3 0.25H33C33.7033 0.275833 34.2892 0.523333 34.7575 0.9925C35.2258 1.46167 35.4733 2.0475 35.5 2.75V22.75C35.4742 24.1567 34.9858 25.335 34.035 26.285C33.0842 27.235 31.9058 27.7233 30.5 27.75H5.5C4.09333 27.7242 2.915 27.2358 1.965 26.285C1.015 25.3342 0.526667 24.1558 0.5 22.75V2.75C0.525833 2.04667 0.773333 1.46083 1.2425 0.9925C1.71167 0.524166 2.2975 0.276667 3 0.25ZM33.3125 2.75L23.6637 13.805C22.9346 14.6125 22.0817 15.2375 21.105 15.68C20.1283 16.1225 19.0933 16.3438 18 16.3438C16.9067 16.3438 15.8717 16.1225 14.895 15.68C13.9183 15.2375 13.0654 14.6125 12.3363 13.805L2.6875 2.75H33.3125ZM6.0075 2.75L14.25 12.1637C14.7192 12.7104 15.2792 13.1271 15.93 13.4137C16.5808 13.7004 17.2708 13.8438 18 13.8438C18.7292 13.8438 19.4192 13.7004 20.07 13.4137C20.7208 13.1271 21.2808 12.7104 21.75 12.1637L29.9925 2.75H6.0075Z" fill="black"/>
</svg>
