<svg width="36" height="36" viewBox="0 0 36 36" fill="none" xmlns="http://www.w3.org/2000/svg">
<path d="M31.005 14.535L21 8.76004C20.3916 8.41053 19.7021 8.22699 19.0004 8.22779C18.2988 8.22858 17.6097 8.41369 17.0021 8.76458C16.3945 9.11546 15.8897 9.61981 15.5384 10.2271C15.187 10.8344 15.0014 11.5234 15 12.225L8.99999 8.76004C8.3916 8.41053 7.70207 8.22699 7.00044 8.22779C6.2988 8.22858 5.60969 8.41369 5.0021 8.76458C4.3945 9.11546 3.88975 9.61981 3.53838 10.2271C3.18701 10.8344 3.00135 11.5234 2.99999 12.225V23.775C2.99633 24.4754 3.1792 25.1642 3.52982 25.7705C3.88043 26.3768 4.38614 26.8788 4.99499 27.225C5.6025 27.5883 6.29714 27.7801 7.00499 27.78C7.7056 27.7763 8.39315 27.5902 8.99999 27.24L15 23.775C14.9968 24.4774 15.1797 25.168 15.5301 25.7766C15.8806 26.3853 16.386 26.8902 16.995 27.24C17.6033 27.593 18.2942 27.7789 18.9975 27.7789C19.7008 27.7789 20.3917 27.593 21 27.24L31.005 21.465C31.6122 21.1131 32.1163 20.6077 32.4667 19.9996C32.8171 19.3914 33.0016 18.7019 33.0016 18C33.0016 17.2982 32.8171 16.6086 32.4667 16.0005C32.1163 15.3924 31.6122 14.887 31.005 14.535ZM15 20.31L7.49999 24.63C7.34854 24.7158 7.17742 24.7607 7.00337 24.7605C6.82933 24.7603 6.65833 24.7148 6.50712 24.6286C6.35592 24.5424 6.22969 24.4185 6.14079 24.2688C6.05189 24.1192 6.00338 23.949 5.99999 23.775V12.225C6.00338 12.051 6.05189 11.8809 6.14079 11.7312C6.22969 11.5816 6.35592 11.4576 6.50712 11.3715C6.65833 11.2853 6.82933 11.2398 7.00337 11.2396C7.17742 11.2393 7.34854 11.2843 7.49999 11.37L15 15.69V20.31ZM29.505 18.81L19.5 24.645C19.3463 24.7304 19.1733 24.7752 18.9975 24.7752C18.8217 24.7752 18.6487 24.7304 18.495 24.645C18.3426 24.5571 18.2164 24.4301 18.1294 24.2772C18.0424 24.1243 17.9978 23.951 18 23.775V12.225C17.9978 12.0491 18.0424 11.8758 18.1294 11.7229C18.2164 11.57 18.3426 11.443 18.495 11.355C18.6525 11.2718 18.8269 11.2256 19.005 11.22C19.1793 11.2185 19.3506 11.2652 19.5 11.355L29.505 17.13C29.6576 17.2183 29.7843 17.3451 29.8724 17.4978C29.9605 17.6506 30.0069 17.8237 30.0069 18C30.0069 18.1763 29.9605 18.3495 29.8724 18.5022C29.7843 18.6549 29.6576 18.7818 29.505 18.87V18.81Z" fill="black"/>
</svg>
